<svg width="612" height="154" viewBox="0 0 612 154" fill="none" xmlns="http://www.w3.org/2000/svg">
<g clip-path="url(#clip0_19_2)">
<path d="M318.363 65.3094L329.288 50.3564H344.658L326.14 75.6287L326.022 75.7931L326.157 75.9754L326.14 75.9987L337.087 90.9458L337.24 91.1515L344.658 101.271H329.382L318.545 86.4586L318.534 86.4707L318.363 86.2355L310.711 75.7931L318.363 65.3094Z" fill="black"/>
<path d="M191.774 64.2405V101.241H177.426V41.1003H193.16L215.284 78.3123V41.1003H229.633V101.27H213.804L191.774 64.2405Z" fill="black"/>
<path d="M238.613 75.7228C238.613 58.779 247.869 49.4287 264.349 49.4287C279.713 49.4287 288.599 57.4867 289.157 71.3708C289.227 73.9975 289.133 76.6259 288.875 79.241H252.685C253.513 87.105 257.589 90.9871 265.089 90.9871C270.551 90.9871 273.899 88.861 275.179 84.8791H288.505C286.191 96.2672 278.139 102.187 264.901 102.187C247.963 102.193 238.613 92.7552 238.613 75.7228ZM276.101 71.0245C275.825 64.564 271.567 60.5642 264.531 60.5642C257.959 60.5642 253.959 64.0883 252.867 71.0245H276.101Z" fill="black"/>
<path d="M318.475 65.3094L307.551 50.3564H292.187L310.699 75.6287L310.816 75.7931L310.681 75.9754L310.699 75.9987L299.751 90.9458L299.599 91.1515L292.187 101.271H307.457L318.292 86.4586L318.304 86.4707L318.475 86.2355L326.127 75.7931L318.475 65.3094Z" fill="url(#paint0_linear_19_2)"/>
<path d="M381.722 90.0704C383.881 90.0621 386.037 89.9385 388.183 89.7004V101.547C385.113 101.95 382.022 102.165 378.927 102.193C366.523 102.193 360.132 96.4548 360.132 85.3485V60.2643H351.27V50.3563H360.156V38.9683L373.858 36.0317V50.3796H387.836V60.2877H373.858V81.948C373.852 87.6626 376.26 90.0704 381.722 90.0704Z" fill="black"/>
<path d="M392.383 75.7228C392.383 58.779 401.64 49.4287 418.118 49.4287C433.485 49.4287 442.371 57.4867 442.929 71.3708C442.996 73.9975 442.904 76.6259 442.646 79.241H406.438C407.266 87.105 411.342 90.9871 418.843 90.9871C424.303 90.9871 427.65 88.861 428.932 84.8791H442.259C439.945 96.2672 431.891 102.187 418.655 102.187C401.716 102.193 392.383 92.7552 392.383 75.7228ZM429.872 71.0245C429.598 64.564 425.336 60.5642 418.301 60.5642C411.729 60.5642 407.73 64.0883 406.637 71.0245H429.872Z" fill="black"/>
<path d="M475.49 49.4287C492.708 49.4287 502.24 58.779 502.24 75.7228C502.24 92.8488 492.708 102.193 475.49 102.193C458.088 102.193 448.556 92.8488 448.556 75.7228C448.556 58.779 458.088 49.4287 475.49 49.4287ZM475.394 90.071C484.097 90.071 488.263 85.4431 488.263 75.7228C488.263 66.0911 484.005 61.3749 475.394 61.3749C466.786 61.3749 462.437 66.0732 462.437 75.7228C462.437 85.4431 466.603 90.071 475.394 90.071Z" fill="black"/>
<path d="M510.568 50.3569H521.402L523.529 56.5589C527.695 52.0247 532.69 49.4287 540.098 49.4287C551.39 49.4287 558.891 57.4867 558.891 69.0571V101.271H545.189V72.2931C545.189 64.981 541.859 61.2809 535.287 61.2809C531.212 61.2809 527.325 63.595 524.27 67.7414V101.253H510.568V50.3569Z" fill="black"/>
<path d="M589.066 102.193C574.902 102.193 566.386 95.4389 566.848 84.703H579.435C579.435 88.9551 583.235 91.6451 589.715 91.6451C595.359 91.551 598.231 89.9769 598.231 86.6409C598.231 83.7045 595.821 82.3889 588.879 81.8311C577.133 80.8147 567.148 78.4952 567.148 65.7211C567.148 55.6307 575.202 49.4287 588.879 49.4287C602.676 49.4287 610.539 55.0788 611.196 66.0911H598.602C598.048 62.0209 594.714 59.8891 589.066 59.9827C584.063 59.9827 580.921 62.2028 580.921 65.5388C580.921 69.1507 583.514 70.6308 591.101 71.3708C602.306 72.4808 611.837 74.5191 611.837 85.995C611.837 96.273 603.596 102.193 589.066 102.193Z" fill="black"/>
<g filter="url(#filter0_i_19_2)">
<path d="M76.4797 152.959C118.718 152.959 152.959 118.718 152.959 76.4797C152.959 34.2411 118.718 0 76.4797 0C34.2411 0 0 34.2411 0 76.4797C0 118.718 34.2411 152.959 76.4797 152.959Z" fill="white" fill-opacity="0.14"/>
</g>
<path d="M76.4802 32.4458C50.2599 32.4458 37.0815 45.5907 37.0815 70.3672V119.626L58.8144 103.907V72.9977C58.8144 56.8036 63.7224 49.742 76.4802 49.742C89.1016 49.742 94.1424 56.943 94.1424 72.9977V103.907L100.104 108.217L100.423 108.451L115.879 119.626V70.3672C115.879 45.7306 102.697 32.4458 76.4802 32.4458Z" fill="url(#paint1_linear_19_2)"/>
<path d="M115.879 96.6853V119.684L80.6682 94.6175C79.4441 93.7464 77.9665 93.2769 76.4499 93.2769C74.9332 93.2769 73.4556 93.7464 72.2315 94.6175L37.0815 119.684V96.5492L65.8526 76.1047C68.9247 73.9191 72.6323 72.7412 76.4386 72.7412C80.2449 72.7412 83.9521 73.9191 87.0242 76.1047L115.879 96.6853Z" fill="url(#paint2_linear_19_2)"/>
</g>
<defs>
<filter id="filter0_i_19_2" x="0" y="0" width="152.959" height="152.959" filterUnits="userSpaceOnUse" color-interpolation-filters="sRGB">
<feFlood flood-opacity="0" result="BackgroundImageFix"/>
<feBlend mode="normal" in="SourceGraphic" in2="BackgroundImageFix" result="shape"/>
<feColorMatrix in="SourceAlpha" type="matrix" values="0 0 0 0 0 0 0 0 0 0 0 0 0 0 0 0 0 0 127 0" result="hardAlpha"/>
<feOffset/>
<feGaussianBlur stdDeviation="5.79394"/>
<feComposite in2="hardAlpha" operator="arithmetic" k2="-1" k3="1"/>
<feColorMatrix type="matrix" values="0 0 0 0 0 0 0 0 0 0 0 0 0 0 0 0 0 0 0.25 0"/>
<feBlend mode="normal" in2="shape" result="effect1_innerShadow_19_2"/>
</filter>
<linearGradient id="paint0_linear_19_2" x1="292.181" y1="75.8106" x2="326.127" y2="75.8106" gradientUnits="userSpaceOnUse">
<stop stop-color="#0EA0CC"/>
<stop offset="1" stop-color="#1B50A3"/>
</linearGradient>
<linearGradient id="paint1_linear_19_2" x1="76.4802" y1="110.93" x2="76.4802" y2="52.8104" gradientUnits="userSpaceOnUse">
<stop stop-color="#F58323"/>
<stop offset="1" stop-color="#FBB03B"/>
</linearGradient>
<linearGradient id="paint2_linear_19_2" x1="76.4802" y1="70.6231" x2="76.4802" y2="110.568" gradientUnits="userSpaceOnUse">
<stop stop-color="#0EA0CC"/>
<stop offset="1" stop-color="#1B50A3"/>
</linearGradient>
<clipPath id="clip0_19_2">
<rect width="611.838" height="154" fill="white"/>
</clipPath>
</defs>
</svg>
